
<svg><path fill="#1a92e8" d="M37.148,111.816q-1.036,0.42-1.778,0.42t-0.742-0.308q0-0.196,0.826-0.224t1.19-0.196q1.064-0.56,1.064-1.652q0-0.56-0.308-1.176q-0.896-1.596-4.34-1.596q-1.988,0-3.976,0.602t-3.332,1.848t-1.344,2.31q0,1.624,3.22,2.38l3.304,0.616q1.988,0.364,2.968,1.008q1.288,0.784,1.288,2.24q0,0.588-0.196,1.26q-0.896,3.024-4.62,4.62q-3.108,1.372-7.336,1.372q-1.204,0-2.1-0.112q0.896,0.504,2.352,0.868q0.112,0.028,0.112,0.112q0,0.252-0.588,0.252q-1.148,0-2.856-1.372q-2.324-0.364-3.472-1.288q-0.728-0.588-1.344-1.736t-0.616-2.072t0.364-1.54q0.84-1.484,2.128-1.484q0.98,0,1.148,1.652q0.392,3.192,0.532,3.64q0.42,1.372,1.428,2.324q1.176,0.252,2.548,0.252q3.024,0,5.936-1.204t4.2-3.416q0.532-0.868,0.532-1.54q0-1.316-2.324-2.044l-4.928-1.12q-1.512-0.364-2.422-1.204t-0.91-1.932q0-1.68,2.1-3.36q1.596-1.288,3.906-2.002t4.536-0.714t3.682,0.644q1.876,0.868,1.876,2.534t-1.708,2.338z M19.116,124.304q-1.624-1.792-2.072-4.9q-0.252-1.764-0.476-1.764t-0.42,0.126t-0.392,0.546t-0.196,1.092q0,2.156,1.512,3.696q0.756,0.784,2.044,1.204z M43.81676,123.688q-1.652,0-1.652-1.932q0-1.092,0.77-2.422t1.89-3.122q-3.584,1.792-6.496,5.292q-1.624,2.436-1.904,2.436q-0.812,0-0.812-0.476q0-0.252,0.336-0.896q2.716-4.844,4.116-7.084q3.332-5.348,4.704-5.796q0.056-0.028,0.112-0.028q0.364,0,0.504,0.588q-0.084,0.588-2.912,4.256q-2.94,3.724-3.332,4.872q1.036-0.756,3.612-2.548q2.772-1.932,3.668-1.932t0.896,0.7q0,0.112-0.014,0.154t-1.946,2.646t-1.932,3.836q0,0.644,0.476,0.644q1.512-0.056,4.536-3.64q0.252-0.252,0.378-0.252t0.126,0.168q0,0.56-2.772,3.024q-1.736,1.512-2.352,1.512z M56.25352,117.864q0,0.98-1.876,3.276q-2.212,2.716-3.78,2.716l-0.448,0q-0.728,0-1.148-0.756q-0.336-0.532-0.336-1.176q0-1.68,2.45-4.718t3.962-3.038q1.428,0,1.428,1.512q0,0.392-0.14,1.008q0.028,0.084,0.532,0.084t1.54-0.532q-0.028,0.476-2.212,1.372q0.028,0.112,0.028,0.252z M54.43352,116.408q-0.952,0-2.702,2.24t-1.75,3.304t0.672,1.064q1.204,0,3.052-2.184t1.848-3.136q-0.448-0.252-1.12-1.288z M68.60628,117.472q0,2.268-2.59,4.298t-4.494,2.03q-1.26,0-1.834-0.168t-1.274-1.008q-0.476,0.392-1.288,2.002t-0.812,2.758q0,0.532,0.532,1.4q0.056,0.14-0.084,0.238t-0.21,0.098t-0.126-0.028q-1.176-0.644-1.176-2.506t3.094-6.44t4.27-4.97q0.28-0.056,0.364-0.056q0.476,0,0.476,1.036q0.28-0.28,1.148-0.532q1.064-0.28,1.512-0.28q1.008,0,1.75,0.574t0.742,1.554z M67.17828,117.192q0-1.064-1.26-1.064t-2.296,0.532q-0.476,0.224-2.632,2.464t-2.156,2.884q0,0.504,0.77,0.756t1.554,0.252q1.54,0,3.78-1.75t2.24-4.074z M80.39904,117.472q0,2.268-2.59,4.298t-4.494,2.03q-1.26,0-1.834-0.168t-1.274-1.008q-0.476,0.392-1.288,2.002t-0.812,2.758q0,0.532,0.532,1.4q0.056,0.14-0.084,0.238t-0.21,0.098t-0.126-0.028q-1.176-0.644-1.176-2.506t3.094-6.44t4.27-4.97q0.28-0.056,0.364-0.056q0.476,0,0.476,1.036q0.28-0.28,1.148-0.532q1.064-0.28,1.512-0.28q1.008,0,1.75,0.574t0.742,1.554z M78.97104,117.192q0-1.064-1.26-1.064t-2.296,0.532q-0.476,0.224-2.632,2.464t-2.156,2.884q0,0.504,0.77,0.756t1.554,0.252q1.54,0,3.78-1.75t2.24-4.074z M88.5098,112.642q0.378,0.266,0.378,0.63t-0.35,0.63t-0.77,0.266t-0.77-0.308t-0.35-0.7q0-0.784,1.064-0.784q0.42,0,0.798,0.266z M82.6438,124.108q-1.428,0-1.428-1.848q0-1.512,1.652-4.186t2.66-2.702q0.28,0,0.63,0.224t0.35,0.448q-0.14,0.196-0.336,0.434t-0.42,0.518t-0.616,0.798t-0.756,0.994q-2.1,2.716-2.1,3.738t0.7,1.022q0.588,0,1.596-0.644q2.352-1.456,3.724-3.192q0.504-0.644,0.686-0.644t0.182,0.224t-0.644,0.896t-1.022,1.064t-0.518,0.518t-0.518,0.476t-0.574,0.49t-0.56,0.42t-0.644,0.406t-0.644,0.294q-0.588,0.252-1.4,0.252z M93.70856,114.952q0.756,0,0.756,0.588q0,0.168-0.084,0.336q-2.52,3.5-3.024,5.292q6.524-6.524,7.924-6.524q0.14-0.028,0.252-0.028q0.784,0,0.784,0.7q0,0.14-0.056,0.28t-1.12,1.512q-1.232,1.456-2.086,2.8t-0.854,2.24t0.392,0.896q1.232,0,4.284-3.388q0.056-0.056,0.196-0.252q0.42-0.504,0.504-0.504t0.084,0.28t-0.392,0.728q-3.472,3.948-4.928,3.948q-1.372,0-1.372-1.512t1.12-3.472l1.792-2.912q-1.904,1.4-3.388,3.066t-2.702,3.234t-1.414,1.568q-0.42,0-0.658-0.35t-0.238-0.868t0.364-1.386t0.924-2.1l-1.68,1.764q-0.616,0.616-0.77,0.616t-0.154-0.182t0.224-0.406q1.036-1.036,1.792-1.988q0.728-0.952,2.996-3.64q0.252-0.336,0.532-0.336z M103.93332,116.268q-0.168,0-0.168-0.112t0.756-1.078t0.756-1.386t-0.378-0.756t-0.378-0.504q0-0.84,0.812-0.84q0.42,0,0.798,0.266t0.378,0.658q0,1.204-1.064,2.478t-1.512,1.274z"/><path fill="#" d=""/></svg>
